<svg xmlns="http://www.w3.org/2000/svg" width="74" height="74" viewBox="0 0 74 74" fill="none">
  <path fill-rule="evenodd" clip-rule="evenodd" d="M74 37C74 57.4345 57.4345 74 37 74C16.5655 74 0 57.4345 0 37C0 16.5655 16.5655 0 37 0C57.4345 0 74 16.5655 74 37ZM41.625 55.5C41.625 58.0543 39.5543 60.125 37 60.125C34.4457 60.125 32.375 58.0543 32.375 55.5C32.375 52.9457 34.4457 50.875 37 50.875C39.5543 50.875 41.625 52.9457 41.625 55.5ZM37 13.875C34.4457 13.875 32.375 15.9457 32.375 18.5V37C32.375 39.5543 34.4457 41.625 37 41.625C39.5543 41.625 41.625 39.5543 41.625 37V18.5C41.625 15.9457 39.5543 13.875 37 13.875Z" fill="#F9A825"/>
</svg>