<svg width="94" height="77" viewBox="0 0 94 77" fill="none" xmlns="http://www.w3.org/2000/svg">
<g id="Vector">
<path d="M8.84155 0.0908173C8.19283 0.356553 7.94479 0.793119 7.65859 2.14078C5.84599 10.7962 6.62827 19.1289 10.0054 27.0061L10.8259 28.9421L9.29947 32.5106C8.45995 34.4656 6.81907 37.9961 5.67427 40.3308C3.40374 44.9622 3.02214 45.9872 3.02214 47.4867C3.02214 48.5876 3.57546 50.5616 4.16694 51.5107C4.66302 52.3079 4.64394 52.4218 4.03338 52.5926C2.79318 52.8963 0.350933 54.187 0.141053 54.6616C-0.183308 55.3449 0.0647324 56.0472 0.751614 56.4078C1.32402 56.6925 1.40034 56.6736 2.88858 56.0472C7.23883 54.187 12.3523 53.2 18.725 52.9533C20.4231 52.8773 21.9686 52.7445 22.1594 52.6496C22.6746 52.3838 22.9226 51.5676 22.6746 50.9602C22.293 50.0871 21.7969 50.0112 18 50.22C14.0313 50.4288 12.0852 50.6565 9.41395 51.188C7.21975 51.6246 7.39147 51.7195 6.43747 49.7454C6.01771 48.8723 5.88415 48.3408 5.88415 47.4677C5.88415 46.4048 6.01771 46.0251 8.13559 41.6785C9.37579 39.116 10.864 35.9651 11.4174 34.6554C11.9898 33.3457 12.4668 32.2448 12.5049 32.1879C12.5431 32.1499 12.772 32.3587 13.0201 32.6624C13.8405 33.6874 15.615 33.2129 15.615 31.9601C15.615 31.7513 15.2334 30.9731 14.7754 30.2328C12.4858 26.4556 10.9022 22.1848 9.9482 17.1549C9.4712 14.5924 9.4712 7.58836 9.96728 4.94999C10.1581 3.90602 10.3489 3.01391 10.387 2.97595C10.5588 2.78614 13.4208 3.41251 15.4432 4.09584C20.8429 5.88006 25.403 8.84112 29.9441 13.5484C31.1652 14.8012 32.3291 15.8831 32.539 15.9401C33.5311 16.2627 34.5233 15.1049 34.1226 14.0799C33.8173 13.2637 28.9328 8.53742 26.6814 6.86708C24.5826 5.31063 24.6208 5.25368 27.2538 6.31663C29.7342 7.32263 32.31 8.72723 34.218 10.0939C35.8017 11.2327 35.9925 11.3276 36.6984 11.2327C41.5257 10.5684 42.7468 10.4925 47.0016 10.4925C51.2565 10.4925 52.4776 10.5684 57.3049 11.2327C58.0108 11.3276 58.2016 11.2327 59.7662 10.1129C61.7505 8.67029 64.8224 7.03791 67.2647 6.10783C68.2377 5.72821 69.0773 5.42451 69.1536 5.42451C69.2299 5.42451 68.3904 6.08885 67.3028 6.88606C65.0895 8.49946 60.186 13.2637 59.8807 14.0799C59.48 15.1049 60.4722 16.2627 61.4643 15.9401C61.6742 15.8641 62.7618 14.8771 63.8684 13.7193C68.5049 8.89806 73.0459 5.91802 78.5028 4.09584C80.5634 3.4315 83.4445 2.78614 83.6162 2.97595C83.8834 3.26067 84.3604 7.17078 84.4367 9.79017C84.5893 14.0989 84.1887 17.3636 83.0248 21.4636C82.3379 23.8362 80.8687 27.4047 79.8002 29.2268C79.3042 30.081 78.7699 30.9921 78.5982 31.2768C78.2166 31.9411 78.4837 32.7573 79.2088 33.099C79.8384 33.4027 80.3917 33.2508 81.0023 32.6055C81.2503 32.3398 81.4793 32.1689 81.4984 32.2069C81.5365 32.2448 82.0517 33.4407 82.6622 34.8453C83.2728 36.2499 84.742 39.4197 85.944 41.8683C87.9856 46.0441 88.1191 46.4048 88.1191 47.4677C88.1191 48.3408 87.9856 48.8723 87.5658 49.7454C86.6118 51.7195 86.7835 51.6436 84.5512 51.188C82.2425 50.7135 78.312 50.2959 74.8204 50.1251C72.3781 50.0302 72.3018 50.0302 71.7866 50.4667C71.1188 51.0551 71.0616 52.0232 71.6912 52.5357C72.0347 52.8014 72.4544 52.8773 73.6946 52.8773C79.5713 52.8773 86.6881 54.1301 90.8857 55.9333C92.5266 56.6356 92.7365 56.6736 93.2135 56.4458C93.8813 56.1231 94.1866 55.3449 93.8813 54.6805C93.7096 54.3199 93.1944 53.9593 92.0687 53.4468C91.2101 53.0482 90.2752 52.6496 89.989 52.5926C89.3593 52.4218 89.3403 52.3079 89.8363 51.5107C90.4278 50.5616 90.9811 48.5876 90.9811 47.4867C90.9811 45.9872 90.5995 44.9622 88.2336 40.141C87.0316 37.6924 85.3907 34.1619 84.5893 32.3018L83.1393 28.9042L83.7117 27.6514C87.2605 19.9261 88.1764 10.986 86.3256 2.14078C85.8677 -0.0230694 85.6387 -0.117975 82.1662 0.12878C72.9887 0.774138 64.6507 3.35557 58.6977 7.41753L57.2285 8.42353L55.2633 8.11983C52.4776 7.68327 41.5448 7.68327 38.7972 8.11983L36.8892 8.42353L34.9812 7.18976C29.0473 3.37455 20.5185 0.698213 12.8484 0.204704C11.799 0.147761 10.5588 0.052855 10.0818 0.0148928C9.60476 -0.0230695 9.05143 0.0148928 8.84155 0.0908173Z" fill="#07323A"/>
<path d="M28.3986 31.3148C25.5175 31.9601 23.4378 34.2948 23.1325 37.2559C22.8845 39.5146 24.1247 42.096 26.0327 43.3678C29.9632 45.9492 35.172 43.9562 36.3359 39.4007C37.2708 35.6994 34.8286 31.9601 30.9935 31.2578C29.677 31.0111 29.7533 31.0111 28.3986 31.3148ZM31.356 34.2568C35.1911 35.9841 34.0654 41.6595 29.8678 41.6785C27.3874 41.6785 25.7465 39.8942 25.9564 37.3887C26.0708 36.0411 26.7959 35.0161 28.0742 34.3707C29.219 33.8013 30.2875 33.7633 31.356 34.2568Z" fill="#07323A"/>
<path d="M62.9335 31.2578C60.8347 31.6754 58.9458 33.1559 58.0681 35.092C55.9502 39.7614 59.709 44.9432 64.8797 44.4687C67.1502 44.2599 69.2299 42.7984 70.2984 40.6155C70.7754 39.6475 70.8517 39.2868 70.8517 37.8822C70.8517 36.5156 70.7563 36.098 70.3175 35.13C69.3444 33.0231 67.589 31.6754 65.3185 31.2578C64.0783 31.0301 64.1165 31.0301 62.9335 31.2578ZM65.9291 34.3707C67.2074 35.0161 67.9325 36.0411 68.0469 37.3887C68.2568 39.9132 66.6159 41.6785 64.1165 41.6785C60.7202 41.6785 59.0221 37.6355 61.3689 35.149C62.571 33.8772 64.3073 33.5735 65.9291 34.3707Z" fill="#07323A"/>
<path d="M43.281 44.165C42.0599 44.6585 41.373 45.7784 41.373 47.2399C41.373 48.5117 41.7928 49.1191 44.0442 51.226L45.6088 52.7065L45.4943 53.5037C45.3035 54.6426 44.5594 55.6865 43.6054 56.1231C42.0981 56.7874 40.0183 56.4648 39.0453 55.4018C38.6064 54.9273 38.1294 53.7694 38.1294 53.2C38.1294 51.9852 36.7557 51.3399 35.8207 52.0991C35.1529 52.6306 35.2293 54.244 36.0306 55.8384C36.6984 57.205 37.5952 58.0402 39.0834 58.7425C39.9611 59.1601 40.3999 59.236 41.85 59.236C43.7962 59.217 44.8456 58.8564 46.2575 57.7175L47.0589 57.0532L47.7076 57.6606C48.051 57.9833 48.8143 58.4768 49.3867 58.7425C50.2643 59.1601 50.7032 59.236 52.1533 59.236C53.7178 59.236 54.004 59.1791 55.1488 58.6096C57.2285 57.6036 58.5069 55.7245 58.6023 53.5607C58.6405 52.6116 58.5832 52.4218 58.1826 52.0991C57.2476 51.3399 55.8739 51.9852 55.8739 53.2C55.8739 53.7694 55.3969 54.9273 54.958 55.4018C54.004 56.4648 51.9052 56.8064 50.4361 56.1231C49.5202 55.7055 49.1195 55.2879 48.7188 54.3389C48.1846 53.0482 48.28 52.8204 50.2262 50.9602C52.2296 49.0621 52.6303 48.3978 52.6303 47.0311C52.6303 46.0062 52.1723 45.133 51.2374 44.4497C50.7413 44.0891 50.417 44.0511 47.2306 44.0131C45.189 43.9942 43.5672 44.0511 43.281 44.165ZM49.8827 47.0122C50.0163 47.2399 47.3451 50.0302 47.0016 50.0302C46.6582 50.0302 43.987 47.2399 44.1206 47.0122C44.216 46.8793 45.2081 46.8034 47.0016 46.8034C48.7952 46.8034 49.7873 46.8793 49.8827 47.0122Z" fill="#07323A"/>
<path d="M8.09743 55.7625C7.50595 56.5787 7.71583 57.1291 9.20407 58.8944C9.98636 59.8244 11.2266 61.1531 11.9898 61.8554L13.3635 63.1461L11.2647 65.291C8.93695 67.6826 7.21975 69.9604 7.21975 70.6627C7.21975 71.6876 8.11651 72.3899 8.99419 72.0673C9.24223 71.9724 9.98636 71.1372 10.6542 70.2261C13.0582 66.9424 17.1795 63.298 22.2167 59.9763C23.7049 59.0082 24.9642 58.0782 25.0405 57.9073C25.384 56.9773 24.7352 55.9143 23.8194 55.9143C23.3042 55.9143 20.156 57.8504 17.4657 59.8624L15.5959 61.248L15.0807 60.8684C14.4129 60.3939 11.9325 57.8504 10.7496 56.4268C9.92912 55.4588 9.77648 55.3449 9.10867 55.3449C8.57443 55.3449 8.30731 55.4588 8.09743 55.7625Z" fill="#07323A"/>
<path d="M69.3444 56.3129C68.8674 56.6925 68.7147 57.262 68.9628 57.8883C69.02 58.0592 70.3175 59.0082 71.8248 59.9953C76.6902 63.2031 81.0977 67.0752 83.1583 69.9603C84.5893 71.9534 84.7611 72.1052 85.4479 72.1052C86.1921 72.1052 86.7835 71.4978 86.7835 70.7196C86.7835 69.9603 85.1045 67.7016 82.7004 65.253L80.6207 63.1271L81.7655 62.1022C83.6735 60.3559 85.6578 57.9263 85.6769 57.243C85.696 56.4458 85.1617 55.9143 84.3413 55.9143C83.788 55.9143 83.5399 56.0662 82.8912 56.8064C81.5174 58.4008 79.4568 60.4888 78.9226 60.8874L78.3883 61.248L76.881 60.1091C74.5151 58.3059 70.7372 55.9143 70.2793 55.9143C70.0503 55.9143 69.6306 56.0851 69.3444 56.3129Z" fill="#07323A"/>
<path d="M18.2862 65.0632C17.3513 66.0692 18.0954 66.9993 21.3771 68.9543C27.6545 72.6747 34.5042 75.2181 41.6211 76.4329C46.0286 77.1922 48.1846 77.1922 52.6303 76.4139C60.2241 75.0663 68.1805 71.9534 74.0953 68.0053C75.5072 67.0752 75.6217 66.9424 75.679 66.278C75.7553 65.3859 75.3164 64.8354 74.5342 64.8354C74.1526 64.8354 73.1604 65.329 71.6531 66.278C64.9751 70.4159 56.8279 73.2251 48.8906 74.1362C42.8804 74.8195 31.2224 71.5358 23.495 66.9613C22.2548 66.2211 20.9574 65.4049 20.5949 65.1391C19.7553 64.5128 18.8204 64.4938 18.2862 65.0632Z" fill="#07323A"/>
</g>
</svg>
