<svg width="88" height="87" viewBox="0 0 88 87" fill="none" xmlns="http://www.w3.org/2000/svg">
<g id="Vector">
<path d="M26.1452 0.0974376C24.4958 0.250547 21.0778 0.931035 19.2583 1.4414C13.4938 3.09158 9.22564 5.32018 6.43689 8.1272C5.02551 9.55622 4.32832 10.628 3.42708 12.7035C2.25376 15.4084 2.15174 16.174 1.9987 22.0942C1.86266 27.6232 1.76063 28.4908 1.04644 31.3659C0.451279 33.7135 0.349252 35.1766 0.706348 36.7757C1.38653 39.8209 3.73316 41.9304 7.69523 43.0362C8.76652 43.3424 9.51472 43.4275 11.2662 43.4275C12.4905 43.4445 13.7319 43.4105 14.0549 43.3595L14.6331 43.2744L15.0072 44.6354C15.9424 47.9868 16.6736 49.5179 19.5134 54.2473C23.5775 60.9841 25.7031 65.9346 27.6756 73.2669C28.2198 75.2573 28.7979 76.9585 29.223 77.8262C31.3996 82.2323 35.1066 85.2435 40.0549 86.6045C41.9424 87.1318 46.0576 87.1318 47.9451 86.6045C52.1452 85.4476 55.4781 83.1 57.6887 79.7145C58.947 77.7751 59.4572 76.4992 60.3924 73.0457C61.2426 69.8134 62.1949 66.9724 63.3172 64.2334C63.7253 63.2297 64.0654 62.226 64.0654 62.0048C64.0654 61.5115 63.4022 60.882 62.8581 60.882C62.637 60.882 62.2799 61.0011 62.0929 61.1372C61.4127 61.5965 59.2021 67.5678 57.9267 72.3482C56.8214 76.4992 56.1073 77.9623 54.1177 80.0718C49.3564 85.1414 41.8574 85.958 36.0759 82.0282C34.8175 81.1606 32.862 79.1021 32.1138 77.8432C31.2976 76.4482 30.8215 75.2063 30.0562 72.3142C28.0667 64.8288 25.414 58.7895 21.0608 51.8656C19.5474 49.4498 18.6632 47.6295 17.915 45.3669C16.9627 42.4748 16.9457 42.6109 18.068 42.1006C20.5337 40.9778 22.9993 38.8342 24.5298 36.4695C25.0229 35.721 26.1962 33.7646 27.1485 32.1144C29.036 28.831 29.189 28.3207 28.4238 27.7252C27.3865 26.9087 26.9784 27.2659 25.0399 30.6513C22.6252 34.8874 21.707 36.1973 20.2786 37.5413C18.8672 38.8512 17.0988 39.872 15.0922 40.5014C13.4258 41.0118 10.0249 41.0628 8.29039 40.5695C4.83846 39.6168 3.01897 37.6944 3.01897 34.9895C3.01897 34.5131 3.25703 33.1351 3.54611 31.9102C4.32832 28.5248 4.54938 26.5514 4.54938 22.2473C4.54938 16.8034 4.92348 14.9321 6.64095 11.989C8.35841 9.01183 12.3205 6.40896 18 4.5036C23.1694 2.78537 29.172 2.07085 31.6377 2.88744C33.1511 3.3978 34.6985 5.52433 35.1576 7.75293C35.4637 9.23299 35.2937 12.074 34.8175 13.3329C34.5965 13.8943 33.2361 16.4121 31.7907 18.9129C30.3453 21.4307 29.087 23.7104 28.985 23.9656C28.7469 24.578 29.053 25.2245 29.7162 25.4967C30.6514 25.8879 30.8895 25.5987 33.7973 20.5801C37.3342 14.4557 37.6233 13.7582 37.8613 11.0363L37.9634 9.77738L39.0687 9.5222C40.5651 9.18195 47.5369 9.18195 49.0163 9.5222L50.0366 9.76037L50.1387 11.0363C50.2747 12.6354 50.5468 13.7242 51.1419 15.0341C51.6691 16.208 62.739 35.4488 63.7423 36.9118C65.1027 38.9193 67.6534 41.0628 69.932 42.1006C71.0543 42.6109 71.0373 42.4748 70.085 45.3669C69.3368 47.6635 68.4526 49.4668 66.8371 52.0357C64.7116 55.4211 63.8443 57.0203 63.8443 57.5306C63.8443 58.1601 64.4225 58.7215 65.0687 58.7215C65.7489 58.7215 65.9699 58.5003 66.6841 57.2244C67.0072 56.629 67.9594 55.0468 68.7927 53.7029C71.1223 49.9602 72.0746 47.9017 72.9928 44.6354L73.3669 43.2744L73.9451 43.3595C74.2682 43.4105 75.5605 43.4275 76.8188 43.4275C78.7744 43.4105 79.3355 43.3424 80.6449 42.9512C84.4029 41.8113 86.6305 39.7529 87.2937 36.7757C87.6507 35.1766 87.5487 33.7135 86.9536 31.3659C86.2394 28.4908 86.1373 27.6232 86.0013 22.0942C85.8483 16.174 85.7462 15.4084 84.5729 12.7035C83.6717 10.628 82.9745 9.55622 81.5631 8.14421C77.346 3.89116 68.2995 0.403657 60.4944 0.0293888C57.8757 -0.0896966 56.1753 0.148474 54.7639 0.828962C52.9274 1.73061 51.2439 3.95921 50.5978 6.3239C50.4957 6.76622 50.3087 7.12348 50.2067 7.12348C50.0876 7.12348 49.2544 7.00439 48.3192 6.86829C46.1426 6.54506 41.8574 6.54506 39.6808 6.86829C38.7456 7.00439 37.9124 7.12348 37.7933 7.12348C37.6913 7.12348 37.5042 6.76622 37.4022 6.3239C36.501 3.00652 34.0693 0.624816 31.0765 0.148474C30.0392 -0.00463558 27.4886 -0.03866 26.1452 0.0974376ZM62.535 2.76835C69.6089 3.72104 76.3937 6.54506 79.8116 9.96451C80.6959 10.8491 81.087 11.4446 81.8352 12.9587C83.2126 15.7997 83.2976 16.242 83.4506 22.3494C83.5867 27.8784 83.6547 28.4738 84.4879 32.0463C84.896 33.7306 84.998 34.5131 84.947 35.3637C84.76 37.9326 83.0425 39.6508 79.6756 40.5865C77.9751 41.0628 74.5572 41.0118 72.9078 40.5014C69.881 39.5487 67.2623 37.6263 65.6468 35.1936C64.4565 33.4073 53.5396 14.2686 53.1655 13.3329C52.8084 12.4313 52.7744 12.04 52.7744 9.93049C52.7744 7.855 52.8084 7.4297 53.1485 6.57909C53.6586 5.32018 54.4578 4.12933 55.223 3.5339C56.4303 2.56421 58.998 2.29201 62.535 2.76835Z" fill="#07323A"/>
<path d="M32.5219 35.789C32.1308 36.1633 32.0968 36.3334 32.0968 37.6604C32.0968 38.9873 32.1308 39.1574 32.5219 39.5317C33.0491 40.0761 33.6952 40.0761 34.2224 39.5317C34.6135 39.1574 34.6475 38.9873 34.6475 37.6604C34.6475 36.3334 34.6135 36.1633 34.2224 35.789C34.0013 35.5509 33.6102 35.3637 33.3721 35.3637C33.1341 35.3637 32.743 35.5509 32.5219 35.789Z" fill="#07323A"/>
<path d="M53.7776 35.789C53.3865 36.1633 53.3525 36.3334 53.3525 37.6604C53.3525 38.9873 53.3865 39.1574 53.7776 39.5317C54.3048 40.0761 54.9509 40.0761 55.4781 39.5317C55.8692 39.1574 55.9032 38.9873 55.9032 37.6604C55.9032 36.3334 55.8692 36.1633 55.4781 35.789C55.257 35.5509 54.8659 35.3637 54.6279 35.3637C54.3898 35.3637 53.9987 35.5509 53.7776 35.789Z" fill="#07323A"/>
<path d="M42.0105 65.1521C38.7626 65.3903 36.0249 66.394 34.9196 67.755C34.2224 68.6056 34.1033 70.2047 34.6305 71.5997C35.5487 74.0495 38.7286 76.7374 41.5683 77.4689C42.8267 77.7921 45.1903 77.7921 46.4487 77.4689C48.9823 76.8054 52.0432 74.3727 53.0975 72.1951C53.8286 70.7321 53.8967 69.167 53.2845 68.1292C52.0092 65.9346 47.554 64.7608 42.0105 65.1521ZM47.2139 67.874C49.7305 68.2313 51.1419 68.9798 51.1419 69.9325C51.1419 71.2254 49.1524 73.4881 47.1118 74.4918C46.0916 75.0021 45.7515 75.0872 44.3401 75.1382C43.0307 75.1893 42.5376 75.1382 41.7554 74.8661C39.3748 74.0325 36.8581 71.4806 36.8581 69.9155C36.8581 68.1632 42.0785 67.1425 47.2139 67.874Z" fill="#07323A"/>
</g>
</svg>
