<svg xmlns="http://www.w3.org/2000/svg" width="74" height="74" viewBox="0 0 74 74" fill="none">
  <path fill-rule="evenodd" clip-rule="evenodd" d="M37 74C57.4345 74 74 57.4345 74 37C74 16.5655 57.4345 0 37 0C16.5655 0 0 16.5655 0 37C0 57.4345 16.5655 74 37 74ZM31.0204 24.4796C29.2142 22.6735 26.2858 22.6735 24.4796 24.4796C22.6735 26.2858 22.6735 29.2142 24.4796 31.0204L30.4593 37L24.4796 42.9796C22.6735 44.7858 22.6735 47.7142 24.4796 49.5204C26.2858 51.3265 29.2142 51.3265 31.0204 49.5204L37 43.5407L42.9796 49.5204C44.7858 51.3265 47.7142 51.3265 49.5204 49.5204C51.3265 47.7142 51.3265 44.7858 49.5204 42.9796L43.5407 37L49.5204 31.0204C51.3265 29.2142 51.3265 26.2858 49.5204 24.4796C47.7142 22.6735 44.7858 22.6735 42.9796 24.4796L37 30.4593L31.0204 24.4796Z" fill="#B71C1C"/>
</svg>