<svg xmlns="http://www.w3.org/2000/svg" width="74" height="74" viewBox="0 0 74 74" fill="none">
  <path fill-rule="evenodd" clip-rule="evenodd" d="M37 74C57.4345 74 74 57.4345 74 37C74 16.5655 57.4345 0 37 0C16.5655 0 0 16.5655 0 37C0 57.4345 16.5655 74 37 74ZM54.1454 31.0204C55.9515 29.2142 55.9515 26.2858 54.1454 24.4796C52.3392 22.6735 49.4108 22.6735 47.6046 24.4796L32.375 39.7093L26.3954 33.7296C24.5892 31.9235 21.6608 31.9235 19.8546 33.7296C18.0485 35.5358 18.0485 38.4642 19.8546 40.2704L29.1046 49.5204C30.9108 51.3265 33.8392 51.3265 35.6454 49.5204L54.1454 31.0204Z" fill="#2E7D32"/>
</svg>